<?xml version="1.0" encoding="UTF-8" standalone="no"?>
<svg
   width="108"
   height="108"
   id="svg7552"
   version="1.1"
   inkscape:version="1.3.2 (091e20e, 2023-11-25, custom)"
   enable-background="new"
   sodipodi:docname="Adaptive Icon.svg"
   inkscape:export-filename="Adaptive Icon Front.png"
   inkscape:export-xdpi="384"
   inkscape:export-ydpi="384"
   xml:space="preserve"
   xmlns:inkscape="http://www.inkscape.org/namespaces/inkscape"
   xmlns:sodipodi="http://sodipodi.sourceforge.net/DTD/sodipodi-0.dtd"
   xmlns:xlink="http://www.w3.org/1999/xlink"
   xmlns="http://www.w3.org/2000/svg"
   xmlns:svg="http://www.w3.org/2000/svg"
   xmlns:rdf="http://www.w3.org/1999/02/22-rdf-syntax-ns#"
   xmlns:cc="http://creativecommons.org/ns#"
   xmlns:dc="http://purl.org/dc/elements/1.1/"><defs
     id="defs7554"><linearGradient
       inkscape:collect="always"
       id="linearGradient845"><stop
         style="stop-color:#ffffff;stop-opacity:0.15"
         offset="0"
         id="stop841" /><stop
         style="stop-color:#ffffff;stop-opacity:0;"
         offset="1"
         id="stop843" /></linearGradient><clipPath
       clipPathUnits="userSpaceOnUse"
       inkscape:inverse="false"
       id="clipPath7794"><rect
         ry="1"
         rx="1"
         y="9"
         x="9"
         height="30"
         width="30"
         id="rect7796"
         style="fill:#5880c0;fill-opacity:1;fill-rule:nonzero;stroke:none" /></clipPath><radialGradient
       inkscape:collect="always"
       xlink:href="#linearGradient845"
       id="radialGradient847"
       cx="0"
       cy="0"
       fx="0"
       fy="0"
       r="54"
       gradientUnits="userSpaceOnUse"
       gradientTransform="matrix(0,2,-2,0,0,0)" /><filter
       inkscape:collect="always"
       style="color-interpolation-filters:sRGB"
       id="filter4"
       x="-0.069119998"
       y="-0.069119998"
       width="1.13824"
       height="1.13824"><feGaussianBlur
         inkscape:collect="always"
         stdDeviation="1.4976"
         id="feGaussianBlur4" /></filter></defs><sodipodi:namedview
     id="base"
     pagecolor="#eeeeee"
     bordercolor="#666666"
     borderopacity="1.0"
     inkscape:pageopacity="0"
     inkscape:pageshadow="2"
     inkscape:zoom="4"
     inkscape:cx="54.5"
     inkscape:cy="53.875"
     inkscape:current-layer="layer1"
     showgrid="false"
     inkscape:grid-bbox="true"
     inkscape:document-units="px"
     inkscape:showpageshadow="false"
     borderlayer="true"
     inkscape:window-width="1920"
     inkscape:window-height="1017"
     inkscape:window-x="-8"
     inkscape:window-y="-8"
     inkscape:window-maximized="1"
     inkscape:object-nodes="true"
     inkscape:document-rotation="0"
     showguides="true"
     inkscape:guide-bbox="true"
     inkscape:pagecheckerboard="0"
     inkscape:deskcolor="#d1d1d1"><inkscape:grid
       type="xygrid"
       id="grid8135"
       empspacing="4"
       color="#9f9f9f"
       opacity="0.1254902"
       empcolor="#9f9f9f"
       empopacity="0.25098039"
       originx="0"
       originy="0"
       spacingy="1"
       spacingx="1"
       units="px"
       visible="false" /><sodipodi:guide
       position="18,90"
       orientation="0,-1"
       id="guide868"
       inkscape:locked="false" /><sodipodi:guide
       position="18,18"
       orientation="1,0"
       id="guide870"
       inkscape:locked="false" /><sodipodi:guide
       position="90,18"
       orientation="0,-1"
       id="guide872"
       inkscape:locked="false" /><sodipodi:guide
       position="90,90"
       orientation="1,0"
       id="guide874"
       inkscape:locked="false" /></sodipodi:namedview><metadata
     id="metadata7557"><rdf:RDF><cc:Work
         rdf:about=""><dc:format>image/svg+xml</dc:format><dc:type
           rdf:resource="http://purl.org/dc/dcmitype/StillImage" /></cc:Work></rdf:RDF></metadata><g
     inkscape:groupmode="layer"
     id="layer1"
     inkscape:label="Layer 1"
     style="display:inline"><rect
       style="fill:#301621;fill-opacity:1;stroke:none;stroke-width:2.89286;stroke-linecap:round;stroke-linejoin:round"
       id="rect1"
       width="108"
       height="108"
       x="0"
       y="0"
       inkscape:label="Background" /><path
       id="rect96144"
       style="fill:#482030;fill-opacity:1;stroke:none;stroke-width:2.89286;stroke-linecap:round;stroke-linejoin:round"
       d="m -7.7142855,-120 v 45.403356 L 18.499406,-120 Z m 52.8850445,0 -52.8850445,91.599612 V -12 H 9.4874791 L 71.842111,-120 Z m 53.342704,0 -62.354632,108 h 26.67041 l 52.885039,-91.59961 V -120 Z M 115.71428,-57.403354 89.500593,-12 h 26.213687 z"
       inkscape:label="Stripes" /><rect
       style="fill:#482030;fill-opacity:1;stroke:none;stroke-width:3.10858;stroke-linecap:round;stroke-linejoin:round"
       id="rect2"
       width="13.5"
       height="124.70766"
       x="100.45895"
       y="138.56406"
       inkscape:label="Background"
       transform="matrix(1,0,-0.5,0.8660254,0,0)" /><rect
       style="fill:#482030;fill-opacity:1;stroke:none;stroke-width:3.10858;stroke-linecap:round;stroke-linejoin:round"
       id="rect4"
       width="13.5"
       height="124.70766"
       x="127.45895"
       y="138.56406"
       inkscape:label="Background"
       transform="matrix(1,0,-0.5,0.8660254,0,0)" /><rect
       style="fill:#482030;fill-opacity:1;stroke:none;stroke-width:3.10858;stroke-linecap:round;stroke-linejoin:round"
       id="rect6"
       width="13.5"
       height="124.70766"
       x="154.45897"
       y="138.56406"
       inkscape:label="Background"
       transform="matrix(1,0,-0.5,0.8660254,0,0)" /><rect
       style="fill:#482030;fill-opacity:1;stroke:none;stroke-width:3.10858;stroke-linecap:round;stroke-linejoin:round"
       id="rect8"
       width="13.5"
       height="124.70766"
       x="181.45898"
       y="138.56406"
       inkscape:label="Background"
       transform="matrix(1,0,-0.5,0.8660254,0,0)" /><rect
       style="fill:#482030;fill-opacity:1;stroke:none;stroke-width:3.10858;stroke-linecap:round;stroke-linejoin:round"
       id="rect10"
       width="13.5"
       height="124.70766"
       x="208.45898"
       y="138.56406"
       inkscape:label="Background"
       transform="matrix(1,0,-0.5,0.8660254,0,0)" /><rect
       style="fill:#482030;fill-opacity:1;stroke:none;stroke-width:3.10858;stroke-linecap:round;stroke-linejoin:round"
       id="rect12"
       width="13.5"
       height="124.70766"
       x="235.45898"
       y="138.56406"
       inkscape:label="Background"
       transform="matrix(1,0,-0.5,0.8660254,0,0)" /><rect
       style="fill:#482030;fill-opacity:1;stroke:none;stroke-width:3.10858;stroke-linecap:round;stroke-linejoin:round"
       id="rect15"
       width="13.5"
       height="124.70766"
       x="73.458946"
       y="138.56406"
       inkscape:label="Background"
       transform="matrix(1,0,-0.5,0.8660254,0,0)" /><rect
       style="fill:#482030;fill-opacity:1;stroke:none;stroke-width:3.10858;stroke-linecap:round;stroke-linejoin:round"
       id="rect16"
       width="18"
       height="124.70766"
       x="31.176914"
       y="0"
       inkscape:label="Background"
       transform="matrix(1,0,-0.5,0.8660254,0,0)" /><rect
       style="fill:#482030;fill-opacity:1;stroke:none;stroke-width:3.10858;stroke-linecap:round;stroke-linejoin:round"
       id="rect18"
       width="18"
       height="124.70766"
       x="67.176918"
       y="0"
       inkscape:label="Background"
       transform="matrix(1,0,-0.5,0.8660254,0,0)" /><rect
       style="fill:#482030;fill-opacity:1;stroke:none;stroke-width:3.10858;stroke-linecap:round;stroke-linejoin:round"
       id="rect20"
       width="18"
       height="124.70766"
       x="103.17692"
       y="0"
       inkscape:label="Background"
       transform="matrix(1,0,-0.5,0.8660254,0,0)" /><rect
       style="fill:#482030;fill-opacity:1;stroke:none;stroke-width:3.10858;stroke-linecap:round;stroke-linejoin:round"
       id="rect22"
       width="18"
       height="124.70766"
       x="139.17691"
       y="0"
       inkscape:label="Background"
       transform="matrix(1,0,-0.5,0.8660254,0,0)" /><rect
       style="fill:#482030;fill-opacity:1;stroke:none;stroke-width:3.10858;stroke-linecap:round;stroke-linejoin:round"
       id="rect25"
       width="18"
       height="124.70766"
       x="-4.8230853"
       y="0"
       inkscape:label="Background"
       transform="matrix(1,0,-0.5,0.8660254,0,0)" /></g><g
     inkscape:groupmode="layer"
     id="layer3"
     inkscape:label="Layer 2"
     style="display:inline"><path
       d="m 44.545455,61.068184 -7.681819,-7.681819 h 5.318183 C 42.772727,40.126364 47.830909,29.75 54.000001,29.75 c 4.727274,0 8.91091,6.240001 10.754546,15.245455 C 73.760004,46.839092 80,51.022729 80,55.750002 c 0,4.325455 -5.129083,8.107273 -12.763633,10.163637 l 0.685455,-4.798182 c 4.514545,-1.3 7.350905,-3.214546 7.350905,-5.365455 0,-2.505456 -3.899997,-4.727274 -9.761815,-5.909092 0.189091,1.867274 0.307273,3.852728 0.307273,5.909092 0,14.370909 -5.294546,25.999998 -11.818183,25.999998 -4.325455,0 -8.107274,-5.129091 -10.163637,-12.763634 l 4.798182,0.685455 c 1.3,4.514546 3.214545,7.350906 5.365455,7.350906 3.923637,0 7.090909,-9.525452 7.090909,-21.272725 0,-2.363637 -0.118181,-4.609092 -0.354545,-6.736364 -2.127273,-0.236364 -4.372727,-0.354546 -6.736364,-0.354546 l -4.396364,0.141818 0.685454,-4.750909 3.71091,-0.118182 c 2.056364,0 4.041819,0.118182 5.909091,0.307273 -1.181818,-5.861818 -3.403637,-9.761819 -5.909091,-9.761819 -3.64,0 -6.665455,8.272728 -7.09091,18.909092 h 5.318183 l -7.681819,7.681819 m 14.772728,4.136364 -7.681819,7.681819 V 67.568185 C 38.376364,66.977275 28,61.919093 28,55.750002 28,51.424546 33.129091,47.642728 40.763638,45.586364 l -0.685455,4.798183 c -4.514546,1.299999 -7.35091,3.214545 -7.35091,5.365455 0,3.64 8.272728,6.665455 18.909092,7.090909 v -5.318183 z"
       id="path4"
       style="fill:#000000;fill-opacity:0.3;stroke:none;stroke-width:3.15152;stroke-dasharray:none;stroke-opacity:1;paint-order:stroke fill markers;filter:url(#filter4)" /><path
       d="m 44.545455,59.318184 -7.681819,-7.681819 h 5.318183 C 42.772727,38.376364 47.830909,28 54.000001,28 c 4.727274,0 8.91091,6.240001 10.754546,15.245455 C 73.760004,45.089092 80,49.272729 80,54.000002 c 0,4.325455 -5.129083,8.107273 -12.763633,10.163637 l 0.685455,-4.798182 c 4.514545,-1.3 7.350905,-3.214546 7.350905,-5.365455 0,-2.505456 -3.899997,-4.727274 -9.761815,-5.909092 0.189091,1.867274 0.307273,3.852728 0.307273,5.909092 C 65.818185,68.370911 60.523639,80 54.000002,80 49.674547,80 45.892728,74.870909 43.836365,67.236366 l 4.798182,0.685455 c 1.3,4.514546 3.214545,7.350906 5.365455,7.350906 3.923637,0 7.090909,-9.525452 7.090909,-21.272725 0,-2.363637 -0.118181,-4.609092 -0.354545,-6.736364 -2.127273,-0.236364 -4.372727,-0.354546 -6.736364,-0.354546 l -4.396364,0.141818 0.685454,-4.750909 3.71091,-0.118182 c 2.056364,0 4.041819,0.118182 5.909091,0.307273 -1.181818,-5.861818 -3.403637,-9.761819 -5.909091,-9.761819 -3.64,0 -6.665455,8.272728 -7.09091,18.909092 h 5.318183 l -7.681819,7.681819 m 14.772728,4.136364 -7.681819,7.681819 V 65.818185 C 38.376364,65.227275 28,60.169093 28,54.000002 28,49.674546 33.129091,45.892728 40.763638,43.836364 l -0.685455,4.798183 c -4.514546,1.299999 -7.35091,3.214545 -7.35091,5.365455 0,3.64 8.272728,6.665455 18.909092,7.090909 v -5.318183 z"
       id="path1"
       style="fill:#ffd740;fill-opacity:1;stroke:none;stroke-width:3.15152;stroke-dasharray:none;stroke-opacity:1;paint-order:stroke fill markers" /></g><g
     sodipodi:insensitive="true"
     inkscape:groupmode="layer"
     id="layer2"
     inkscape:label="Finish"
     style="display:none"><rect
       style="color:#000000;overflow:visible;opacity:0.149;fill:url(#radialGradient847);fill-opacity:1;stroke-width:3;stroke-linecap:round;stroke-linejoin:round;stroke-dashoffset:24;paint-order:stroke fill markers"
       id="rect839"
       width="108"
       height="108"
       x="0"
       y="0" /></g></svg>
