<?xml version="1.0" encoding="UTF-8" standalone="no"?>
<!-- Created with Inkscape (http://www.inkscape.org/) -->

<svg
   width="48"
   height="48"
   id="svg7552"
   version="1.1"
   inkscape:version="1.3.2 (091e20ef0f, 2023-11-25)"
   enable-background="new"
   sodipodi:docname="Base Android Icon.svg"
   inkscape:export-filename="Base Android Icon.png"
   inkscape:export-xdpi="384"
   inkscape:export-ydpi="384"
   xmlns:inkscape="http://www.inkscape.org/namespaces/inkscape"
   xmlns:sodipodi="http://sodipodi.sourceforge.net/DTD/sodipodi-0.dtd"
   xmlns:xlink="http://www.w3.org/1999/xlink"
   xmlns="http://www.w3.org/2000/svg"
   xmlns:svg="http://www.w3.org/2000/svg"
   xmlns:rdf="http://www.w3.org/1999/02/22-rdf-syntax-ns#"
   xmlns:cc="http://creativecommons.org/ns#"
   xmlns:dc="http://purl.org/dc/elements/1.1/">
  <defs
     id="defs7554">
    <linearGradient
       inkscape:collect="always"
       id="linearGradient4245">
      <stop
         style="stop-color:#f5f5f5;stop-opacity:0.1"
         offset="0"
         id="stop4247" />
      <stop
         style="stop-color:#f5f5f5;stop-opacity:0;"
         offset="1"
         id="stop4249" />
    </linearGradient>
    <clipPath
       clipPathUnits="userSpaceOnUse"
       inkscape:inverse="false"
       id="clipPath7794">
      <rect
         ry="1"
         rx="1"
         y="9"
         x="9"
         height="30"
         width="30"
         id="rect7796"
         style="fill:#5880c0;fill-opacity:1;fill-rule:nonzero;stroke:none" />
    </clipPath>
    <filter
       inkscape:collect="always"
       style="color-interpolation-filters:sRGB"
       id="filter4516"
       x="-0.030000001"
       width="1.06"
       y="-0.030000001"
       height="1.06">
      <feGaussianBlur
         inkscape:collect="always"
         stdDeviation="0.55"
         id="feGaussianBlur4518" />
    </filter>
    <radialGradient
       inkscape:collect="always"
       xlink:href="#linearGradient4245"
       id="radialGradient4251"
       cx="1.9913014"
       cy="2.0796897"
       fx="1.9913014"
       fy="2.0796897"
       r="22"
       gradientUnits="userSpaceOnUse"
       gradientTransform="matrix(0,1.9927555,-1.9927555,0,6.1356145,-1.8884869)" />
    <filter
       inkscape:collect="always"
       style="color-interpolation-filters:sRGB"
       id="filter4174"
       x="-0.036000001"
       width="1.072"
       y="-0.036000001"
       height="1.072">
      <feGaussianBlur
         inkscape:collect="always"
         stdDeviation="0.66"
         id="feGaussianBlur4176" />
    </filter>
    <filter
       inkscape:collect="always"
       style="color-interpolation-filters:sRGB"
       id="filter15"
       x="-0.069120004"
       y="-0.069119999"
       width="1.13824"
       height="1.13824">
      <feGaussianBlur
         inkscape:collect="always"
         stdDeviation="0.92160003"
         id="feGaussianBlur15" />
    </filter>
  </defs>
  <sodipodi:namedview
     id="base"
     pagecolor="#eeeeee"
     bordercolor="#666666"
     borderopacity="1.0"
     inkscape:pageopacity="0"
     inkscape:pageshadow="2"
     inkscape:zoom="11.313708"
     inkscape:cx="23.953242"
     inkscape:cy="23.555495"
     inkscape:current-layer="layer6"
     showgrid="false"
     inkscape:grid-bbox="true"
     inkscape:document-units="px"
     inkscape:showpageshadow="false"
     borderlayer="true"
     inkscape:window-width="1920"
     inkscape:window-height="994"
     inkscape:window-x="0"
     inkscape:window-y="0"
     inkscape:window-maximized="1"
     inkscape:object-nodes="true"
     inkscape:pagecheckerboard="0"
     inkscape:deskcolor="#d1d1d1">
    <inkscape:grid
       type="xygrid"
       id="grid8135"
       empspacing="1"
       color="#9f9f9f"
       opacity="0.1254902"
       empcolor="#9f9f9f"
       empopacity="0.25098039"
       originx="0"
       originy="0"
       spacingy="1"
       spacingx="1"
       units="px"
       visible="false" />
  </sodipodi:namedview>
  <metadata
     id="metadata7557">
    <rdf:RDF>
      <cc:Work
         rdf:about="">
        <dc:format>image/svg+xml</dc:format>
        <dc:type
           rdf:resource="http://purl.org/dc/dcmitype/StillImage" />
      </cc:Work>
    </rdf:RDF>
  </metadata>
  <g
     inkscape:groupmode="layer"
     id="layer6"
     inkscape:label="Layer">
    <circle
       r="22"
       cy="24"
       cx="24"
       id="circle4164"
       style="color:#000000;clip-rule:nonzero;display:inline;overflow:visible;visibility:visible;opacity:0.1;isolation:auto;mix-blend-mode:normal;color-interpolation:sRGB;color-interpolation-filters:linearRGB;solid-color:#000000;solid-opacity:1;fill:#000000;fill-opacity:1;fill-rule:nonzero;stroke:none;stroke-width:1;stroke-linecap:butt;stroke-linejoin:miter;stroke-miterlimit:4;stroke-dasharray:none;stroke-dashoffset:0;stroke-opacity:1;filter:url(#filter4174);color-rendering:auto;image-rendering:auto;shape-rendering:auto;text-rendering:auto;enable-background:accumulate" />
    <circle
       r="22"
       cy="25"
       cx="24"
       id="circle4506"
       style="color:#000000;clip-rule:nonzero;display:inline;overflow:visible;visibility:visible;opacity:0.24;isolation:auto;mix-blend-mode:normal;color-interpolation:sRGB;color-interpolation-filters:linearRGB;solid-color:#000000;solid-opacity:1;fill:#000000;fill-opacity:1;fill-rule:nonzero;stroke:none;stroke-width:1;stroke-linecap:butt;stroke-linejoin:miter;stroke-miterlimit:4;stroke-dasharray:none;stroke-dashoffset:0;stroke-opacity:1;filter:url(#filter4516);color-rendering:auto;image-rendering:auto;shape-rendering:auto;text-rendering:auto;enable-background:accumulate" />
    <circle
       style="color:#000000;clip-rule:nonzero;display:none;overflow:visible;visibility:visible;opacity:1;isolation:auto;mix-blend-mode:normal;color-interpolation:sRGB;color-interpolation-filters:linearRGB;solid-color:#000000;solid-opacity:1;fill:#ffffff;fill-opacity:1;fill-rule:nonzero;stroke:none;stroke-width:1;stroke-linecap:butt;stroke-linejoin:miter;stroke-miterlimit:4;stroke-dasharray:none;stroke-dashoffset:0;stroke-opacity:1;color-rendering:auto;image-rendering:auto;shape-rendering:auto;text-rendering:auto;enable-background:accumulate"
       id="path4479"
       cx="24"
       cy="24"
       r="22" />
    <path
       id="rect88012"
       style="display:inline;fill:#301621;fill-opacity:1;stroke:none;stroke-width:1.28571;stroke-linecap:round;stroke-linejoin:round"
       inkscape:label="Background"
       d="M 24 2 A 22 22 0 0 0 2 24 A 22 22 0 0 0 24 46 A 22 22 0 0 0 46 24 A 22 22 0 0 0 24 2 z " />
    <path
       id="rect96144"
       style="display:inline;fill:#482030;fill-opacity:1;stroke:none;stroke-width:1.28571;stroke-linecap:round;stroke-linejoin:round"
       inkscape:label="Stripes"
       d="M 24 2 A 22 22 0 0 0 18.494141 2.7402344 L 2.8222656 29.884766 A 22 22 0 0 0 8.8828125 39.916016 L 30.25 2.9101562 A 22 22 0 0 0 24 2 z M 39.138672 8.0449219 L 17.75 45.089844 A 22 22 0 0 0 24 46 A 22 22 0 0 0 29.505859 45.259766 L 45.1875 18.099609 A 22 22 0 0 0 39.138672 8.0449219 z " />
    <path
       inkscape:connector-curvature="0"
       style="color:#000000;clip-rule:nonzero;display:inline;overflow:visible;visibility:visible;opacity:0.5;isolation:auto;mix-blend-mode:normal;color-interpolation:sRGB;color-interpolation-filters:linearRGB;solid-color:#000000;solid-opacity:1;fill:#ffffff;fill-opacity:1;fill-rule:nonzero;stroke:none;stroke-width:1;stroke-linecap:butt;stroke-linejoin:miter;stroke-miterlimit:4;stroke-dasharray:none;stroke-dashoffset:0;stroke-opacity:1;color-rendering:auto;image-rendering:auto;shape-rendering:auto;text-rendering:auto;enable-background:accumulate"
       d="M 24,1.9999902 A 22,22 0 0 0 2.0000006,23.99999 22,22 0 0 0 2.0058606,24.14647 22,22 0 0 1 24,2.2499902 22,22 0 0 1 45.994141,24.10351 22,22 0 0 0 46,23.99999 22,22 0 0 0 24,1.9999902 Z"
       id="circle4496" />
    <path
       inkscape:connector-curvature="0"
       style="color:#000000;clip-rule:nonzero;display:inline;overflow:visible;visibility:visible;opacity:0.15;isolation:auto;mix-blend-mode:normal;color-interpolation:sRGB;color-interpolation-filters:linearRGB;solid-color:#000000;solid-opacity:1;fill:#000000;fill-opacity:1;fill-rule:nonzero;stroke:none;stroke-width:1;stroke-linecap:butt;stroke-linejoin:miter;stroke-miterlimit:4;stroke-dasharray:none;stroke-dashoffset:0;stroke-opacity:1;color-rendering:auto;image-rendering:auto;shape-rendering:auto;text-rendering:auto;enable-background:accumulate"
       d="M 45.994141,23.85351 A 22,22 0 0 1 24,45.74999 22,22 0 0 1 2.00586,23.89647 22,22 0 0 0 2,23.99999 a 22,22 0 0 0 21.999999,22 22,22 0 0 0 22,-22 22,22 0 0 0 -0.0059,-0.14648 z"
       id="circle4501" />
    <path
       d="m 18.181819,28.335228 -4.727273,-4.727273 h 3.272727 c 0.363637,-8.160001 3.476365,-14.545456 7.272729,-14.545456 2.909091,0 5.483637,3.84 6.618182,9.381819 C 36.160003,19.578864 40,22.15341 40,25.062501 c 0,2.661818 -3.156358,4.989091 -7.854543,6.254546 l 0.421819,-2.952728 c 2.778182,-0.8 4.523634,-1.978182 4.523634,-3.301818 0,-1.541819 -2.399998,-2.909091 -6.007271,-3.636364 0.116364,1.149091 0.189091,2.370909 0.189091,3.636364 0,8.843637 -3.258182,16 -7.272728,16 -2.661819,0 -4.989091,-3.156364 -6.254545,-7.854545 l 2.952726,0.421818 c 0.8,2.778183 1.978182,4.523635 3.301819,4.523635 2.414546,0 4.363637,-5.861817 4.363637,-13.090908 0,-1.454546 -0.07273,-2.836364 -0.218182,-4.145455 -1.309091,-0.145455 -2.69091,-0.218182 -4.145455,-0.218182 l -2.705455,0.08727 0.421818,-2.923637 2.283637,-0.07273 c 1.265454,0 2.487273,0.07273 3.636364,0.189091 -0.727273,-3.607273 -2.094546,-6.007273 -3.636364,-6.007273 -2.24,0 -4.101818,5.090909 -4.363637,11.636365 h 3.272727 l -4.727272,4.727272 m 9.09091,2.545455 -4.727274,4.727274 V 32.335229 C 14.385455,31.971592 8.0000002,28.858865 8.0000002,25.062501 c 0,-2.661819 3.1563638,-4.989092 7.8545468,-6.254546 l -0.421819,2.952727 c -2.778182,0.8 -4.523636,1.978182 -4.523636,3.301819 0,2.24 5.090909,4.101818 11.636364,4.363636 V 26.15341 Z"
       id="path15"
       style="display:inline;fill:#000000;fill-opacity:0.30000001;stroke:none;stroke-width:1.9394;stroke-dasharray:none;stroke-opacity:1;paint-order:stroke fill markers;filter:url(#filter15)" />
    <path
       d="m 18.181819,27.272728 -4.727273,-4.727273 h 3.272727 c 0.363637,-8.160001 3.476365,-14.545456 7.272729,-14.545456 2.909091,0 5.483637,3.84 6.618182,9.381819 C 36.160003,18.516364 40,21.09091 40,24.000001 c 0,2.661818 -3.156358,4.989091 -7.854543,6.254546 l 0.421819,-2.952728 c 2.778182,-0.8 4.523634,-1.978182 4.523634,-3.301818 0,-1.541819 -2.399998,-2.909091 -6.007271,-3.636364 0.116364,1.149091 0.189091,2.370909 0.189091,3.636364 0,8.843637 -3.258182,16 -7.272728,16 -2.661819,0 -4.989091,-3.156364 -6.254545,-7.854545 l 2.952726,0.421818 c 0.8,2.778183 1.978182,4.523635 3.301819,4.523635 2.414546,0 4.363637,-5.861817 4.363637,-13.090908 0,-1.454546 -0.07273,-2.836364 -0.218182,-4.145455 -1.309091,-0.145455 -2.69091,-0.218182 -4.145455,-0.218182 l -2.705455,0.08727 0.421818,-2.923637 2.283637,-0.07273 c 1.265454,0 2.487273,0.07273 3.636364,0.189091 -0.727273,-3.607273 -2.094546,-6.007273 -3.636364,-6.007273 -2.24,0 -4.101818,5.090909 -4.363637,11.636365 h 3.272727 l -4.727272,4.727272 m 9.09091,2.545455 -4.727274,4.727274 V 31.272729 C 14.385455,30.909092 8.0000002,27.796365 8.0000002,24.000001 c 0,-2.661819 3.1563638,-4.989092 7.8545468,-6.254546 l -0.421819,2.952727 c -2.778182,0.8 -4.523636,1.978182 -4.523636,3.301819 0,2.24 5.090909,4.101818 11.636364,4.363636 V 25.09091 Z"
       id="path10"
       style="display:inline;fill:#ffd740;fill-opacity:1;stroke:none;stroke-width:1.9394;stroke-dasharray:none;stroke-opacity:1;paint-order:stroke fill markers" />
  </g>
  <g
     inkscape:groupmode="layer"
     id="layer2"
     inkscape:label="Finish"
     style="display:inline"
     sodipodi:insensitive="true">
    <circle
       r="22"
       cy="24"
       cx="24"
       id="circle4228"
       style="color:#000000;clip-rule:nonzero;display:inline;overflow:visible;visibility:visible;opacity:1;isolation:auto;mix-blend-mode:normal;color-interpolation:sRGB;color-interpolation-filters:linearRGB;solid-color:#000000;solid-opacity:1;fill:url(#radialGradient4251);fill-opacity:1;fill-rule:nonzero;stroke:none;stroke-width:1;stroke-linecap:butt;stroke-linejoin:miter;stroke-miterlimit:4;stroke-dasharray:none;stroke-dashoffset:0;stroke-opacity:1;color-rendering:auto;image-rendering:auto;shape-rendering:auto;text-rendering:auto;enable-background:accumulate" />
  </g>
  <g
     id="layer1"
     inkscape:label="Icon grid"
     inkscape:groupmode="layer"
     sodipodi:insensitive="true"
     style="display:none">
    <g
       transform="translate(0,-1004.3622)"
       id="g7511"
       style="display:inline;opacity:0.54000005;filter:url(#filter7145);enable-background:new">
      <path
         transform="translate(0,1004.3622)"
         inkscape:connector-curvature="0"
         id="path7481"
         d="M 0,0 48,48"
         style="fill:none;stroke:#000000;stroke-width:0.1;stroke-linecap:round;stroke-linejoin:miter;stroke-miterlimit:4;stroke-dasharray:none;stroke-dashoffset:0;stroke-opacity:1" />
      <path
         transform="translate(0,1004.3622)"
         inkscape:connector-curvature="0"
         id="path7483"
         d="M 0,48 48,0"
         style="fill:none;stroke:#000000;stroke-width:0.1;stroke-linecap:round;stroke-linejoin:miter;stroke-miterlimit:4;stroke-dasharray:none;stroke-dashoffset:0;stroke-opacity:1" />
      <path
         transform="translate(0,1004.3622)"
         inkscape:connector-curvature="0"
         id="path7485"
         d="m 31,0 0,48"
         style="fill:none;stroke:#000000;stroke-width:0.1;stroke-linecap:round;stroke-linejoin:miter;stroke-miterlimit:4;stroke-dasharray:none;stroke-dashoffset:0;stroke-opacity:1" />
      <path
         transform="translate(0,1004.3622)"
         inkscape:connector-curvature="0"
         id="path7487"
         d="M 24,48 24,0"
         style="fill:none;stroke:#000000;stroke-width:0.1;stroke-linecap:round;stroke-linejoin:miter;stroke-miterlimit:4;stroke-dasharray:none;stroke-dashoffset:0;stroke-opacity:1" />
      <path
         transform="translate(0,1004.3622)"
         inkscape:connector-curvature="0"
         id="path7491"
         d="M 17,48 17,0"
         style="fill:none;stroke:#000000;stroke-width:0.1;stroke-linecap:round;stroke-linejoin:miter;stroke-miterlimit:4;stroke-dasharray:none;stroke-dashoffset:0;stroke-opacity:1" />
      <path
         transform="translate(0,1004.3622)"
         inkscape:connector-curvature="0"
         id="path7493"
         d="m 0,31 48,0"
         style="fill:none;stroke:#000000;stroke-width:0.1;stroke-linecap:round;stroke-linejoin:miter;stroke-miterlimit:4;stroke-dasharray:none;stroke-dashoffset:0;stroke-opacity:1" />
      <path
         transform="translate(0,1004.3622)"
         inkscape:connector-curvature="0"
         id="path7495"
         d="M 48,24 0,24"
         style="fill:none;stroke:#000000;stroke-width:0.1;stroke-linecap:round;stroke-linejoin:miter;stroke-miterlimit:4;stroke-dasharray:none;stroke-dashoffset:0;stroke-opacity:1" />
      <path
         transform="translate(0,1004.3622)"
         inkscape:connector-curvature="0"
         id="path7497"
         d="m 0,17 48,0"
         style="fill:none;stroke:#000000;stroke-width:0.1;stroke-linecap:round;stroke-linejoin:miter;stroke-miterlimit:4;stroke-dasharray:none;stroke-dashoffset:0;stroke-opacity:1" />
      <circle
         transform="translate(0,1004.3622)"
         id="path7499"
         style="fill:none;stroke:#000000;stroke-width:0.1;stroke-linecap:round;stroke-linejoin:miter;stroke-miterlimit:4;stroke-dasharray:none;stroke-dashoffset:0;stroke-opacity:1"
         cx="24"
         cy="24"
         r="10" />
      <circle
         transform="translate(0,1004.3622)"
         id="path7501"
         style="fill:none;stroke:#000000;stroke-width:0.1;stroke-linecap:round;stroke-linejoin:miter;stroke-miterlimit:4;stroke-dasharray:none;stroke-dashoffset:0;stroke-opacity:1"
         cx="24"
         cy="24"
         r="22" />
      <rect
         ry="3"
         rx="3"
         transform="translate(0,1004.3622)"
         y="5"
         x="5"
         height="38"
         width="38"
         id="rect7503"
         style="fill:none;stroke:#000000;stroke-width:0.1;stroke-linecap:round;stroke-linejoin:miter;stroke-miterlimit:4;stroke-dasharray:none;stroke-dashoffset:0;stroke-opacity:1" />
      <rect
         ry="3"
         rx="3"
         transform="translate(0,1004.3622)"
         y="2"
         x="8"
         height="44"
         width="32"
         id="rect7505"
         style="fill:none;stroke:#000000;stroke-width:0.1;stroke-linecap:round;stroke-linejoin:miter;stroke-miterlimit:4;stroke-dasharray:none;stroke-dashoffset:0;stroke-opacity:1" />
      <rect
         ry="3"
         rx="3"
         transform="translate(0,1004.3622)"
         y="8"
         x="2"
         height="32"
         width="44"
         id="rect7507"
         style="fill:none;stroke:#000000;stroke-width:0.1;stroke-linecap:round;stroke-linejoin:miter;stroke-miterlimit:4;stroke-dasharray:none;stroke-dashoffset:0;stroke-opacity:1" />
      <rect
         transform="translate(0,1004.3622)"
         y="0"
         x="0"
         height="48"
         width="48"
         id="rect7509"
         style="fill:none;stroke:#000000;stroke-width:0.1;stroke-linecap:round;stroke-linejoin:miter;stroke-miterlimit:4;stroke-dasharray:none;stroke-dashoffset:0;stroke-opacity:1" />
    </g>
  </g>
</svg>
